# xmcd
#
# Track frame offsets:
#	182
#	18667
#	36270
#	55892
#	75515
#	91295
#	107002
#	123425
#	137937
#
# Disc length: 1998 seconds
#
# Revision: 2
# Processed by: cddbd v1.5.2PL0 Copyright (c) Steve Scherf et al.
# Submitted via: EasyCDDAExtractor 15.3.0.1
#
DISCID=7307cc09
DTITLE=Daniela Romo - Exitos Del Recuerdo
DYEAR=1995
DGENRE=Latin
TTITLE0=Quiero Amanecer Con Alguien
TTITLE1=Yo No Te Pido La Luna
TTITLE2=Duele
TTITLE3=Todo, Todo, Todo
TTITLE4=De Mi Enamorate
TTITLE5=Te Olvidare
TTITLE6=En Todo Momento Solo Tuya
TTITLE7=Veneno Para Dos
TTITLE8=Celos
EXTD=
EXTT0=
EXTT1=
EXTT2=
EXTT3=
EXTT4=
EXTT5=
EXTT6=
EXTT7=
EXTT8=
PLAYORDER=
